<svg viewBox="0 0 24.2688 22.3825" xmlns="http://www.w3.org/2000/svg">
  <g style="transform:scale(1, 1);">
    <g style="clip-path:url(#clip-dextools);">
      <clipPath id="clip-dextools">
        <path d="M2.46710054,0 L21.80167731,0 C22.45599305,0 23.08350973,0.25992592 23.54618083,0.72259702 24.00885193,1.18526812 24.26877785,1.81278479 24.26877785,2.46710054 L24.26877785,19.91543158 C24.26877785,21.27797358 23.16421931,22.38253212 21.80167731,22.38253212 L2.46710054,22.38253212 C1.10455854,22.38253212 0,21.27797358 0,19.91543158 L0,2.46710054 C0,1.10455854 1.10455854,0 2.46710054,0 Z"/>
      </clipPath>
      <path d="M2.46710054,0 L21.80167731,0 C22.45599305,0 23.08350973,0.25992592 23.54618083,0.72259702 24.00885193,1.18526812 24.26877785,1.81278479 24.26877785,2.46710054 L24.26877785,19.91543158 C24.26877785,21.27797358 23.16421931,22.38253212 21.80167731,22.38253212 L2.46710054,22.38253212 C1.10455854,22.38253212 0,21.27797358 0,19.91543158 L0,2.46710054 C0,1.10455854 1.10455854,0 2.46710054,0 Z" style="fill:#ffffff;opacity:1.0;"/>
      <path d="M2.46710054,0 L21.80167731,0 C22.45599305,0 23.08350973,0.25992592 23.54618083,0.72259702 24.00885193,1.18526812 24.26877785,1.81278479 24.26877785,2.46710054 L24.26877785,19.91543158 C24.26877785,21.27797358 23.16421931,22.38253212 21.80167731,22.38253212 L2.46710054,22.38253212 C1.10455854,22.38253212 0,21.27797358 0,19.91543158 L0,2.46710054 C0,1.10455854 1.10455854,0 2.46710054,0 Z" style="fill:none;stroke-linecap:butt;vector-effect:non-scaling-stroke;stroke:#000000;"/>
    </g>
  </g>
</svg>
