<svg viewBox="0 0 35.6267 22.3825" xmlns="http://www.w3.org/2000/svg">
  <g style="transform:scale(1, 1);">
    <g style="clip-path:url(#clip-raydium);">
      <clipPath id="clip-raydium">
        <path d="M2.46710049,0 L33.15957034,0 C33.81388608,0 34.44140274,0.25992591 34.90407383,0.722597 35.36674493,1.18526809 35.62667084,1.81278476 35.62667084,2.46710049 L35.62667084,19.91543162 C35.62667084,20.56974736 35.36674493,21.19726402 34.90407383,21.65993512 34.44140274,22.12260621 33.81388607,22.38253212 33.15957034,22.38253212 L2.46710049,22.38253212 C1.81278476,22.38253212 1.18526809,22.12260621 0.722597,21.65993511 0.25992591,21.19726402 0,20.56974735 0,19.91543162 L0,2.46710049 C0,1.81278476 0.25992591,1.1852681 0.722597,0.72259701 1.18526809,0.25992591 1.81278476,0 2.46710049,0 Z"/>
      </clipPath>
      <path d="M2.46710049,0 L33.15957034,0 C33.81388608,0 34.44140274,0.25992591 34.90407383,0.722597 35.36674493,1.18526809 35.62667084,1.81278476 35.62667084,2.46710049 L35.62667084,19.91543162 C35.62667084,20.56974736 35.36674493,21.19726402 34.90407383,21.65993512 34.44140274,22.12260621 33.81388607,22.38253212 33.15957034,22.38253212 L2.46710049,22.38253212 C1.81278476,22.38253212 1.18526809,22.12260621 0.722597,21.65993511 0.25992591,21.19726402 0,20.56974735 0,19.91543162 L0,2.46710049 C0,1.81278476 0.25992591,1.1852681 0.722597,0.72259701 1.18526809,0.25992591 1.81278476,0 2.46710049,0 Z" style="fill:#ffffff;opacity:1.0;"/>
      <path d="M2.46710049,0 L33.15957034,0 C33.81388608,0 34.44140274,0.25992591 34.90407383,0.722597 35.36674493,1.18526809 35.62667084,1.81278476 35.62667084,2.46710049 L35.62667084,19.91543162 C35.62667084,20.56974736 35.36674493,21.19726402 34.90407383,21.65993512 34.44140274,22.12260621 33.81388607,22.38253212 33.15957034,22.38253212 L2.46710049,22.38253212 C1.81278476,22.38253212 1.18526809,22.12260621 0.722597,21.65993511 0.25992591,21.19726402 0,20.56974735 0,19.91543162 L0,2.46710049 C0,1.81278476 0.25992591,1.1852681 0.722597,0.72259701 1.18526809,0.25992591 1.81278476,0 2.46710049,0 Z" style="fill:none;stroke-linecap:butt;vector-effect:non-scaling-stroke;stroke:#000000;"/>
    </g>
  </g>
</svg>
